<?xml version="1.0" encoding="UTF-8"?>
<!DOCTYPE svg PUBLIC "-//W3C//DTD SVG 1.1//EN" "http://www.w3.org/Graphics/SVG/1.1/DTD/svg11.dtd">
<!-- Creator: CorelDRAW X8 -->
<svg xmlns="http://www.w3.org/2000/svg" xml:space="preserve" width="125mm" height="60mm" version="1.1" style="shape-rendering:geometricPrecision; text-rendering:geometricPrecision; image-rendering:optimizeQuality; fill-rule:evenodd; clip-rule:evenodd" viewBox="0 0 7813 3750">
 <defs>
  <style type="text/css">
   <![CDATA[
    .fil2 {fill:#C52F33}
    .fil0 {fill:#006CB5}
    .fil1 {fill:#C52F33}
    .fil3 {fill:#373435;fill-rule:nonzero}
   ]]>
  </style>
 </defs>
 <g id="Layer_x0020_1">
  <metadata id="CorelCorpID_0Corel-Layer"/>
  <g id="_1750722383984">
   <g>
    <path class="fil0" d="M0 1250c799,-1143 2080,-866 2638,0l1112 0c-694,-1655 -3097,-1679 -3750,0z"/>
    <path class="fil1" d="M3750 2500c-799,1143 -2080,866 -2638,0l-1112 0c694,1655 3097,1679 3750,0z"/>
   </g>
   <g>
    <polygon class="fil0" points="2468,2812 2013,2053 1578,2053 1735,1787 1858,1787 1529,1234 1706,937 2819,2812 "/>
    <polygon class="fil2" points="931,2279 1431,1386 1602,1693 1273,2279 "/>
   </g>
   <g>
    <path class="fil3" d="M3458 2034l-262 0 0 -497 -360 0 0 -162 982 0 0 162 -360 0 0 497zm1039 0l-262 0 0 -497 -360 0 0 -162 982 0 0 162 -360 0 0 497zm1162 -495l-417 0 0 161 417 0c35,0 60,-6 74,-18 14,-13 21,-36 21,-68 0,-26 -7,-45 -22,-57 -15,-12 -39,-18 -73,-18zm10 -164c137,0 229,16 279,47 49,31 74,87 74,169 0,57 -11,99 -33,127 -22,28 -59,46 -110,56 45,8 79,23 102,44 22,21 34,48 34,81l0 135 -263 0 0 -100c0,-26 -8,-44 -24,-54 -16,-10 -48,-15 -94,-15l-392 0 0 169 -264 0 0 -659 691 0zm793 659l-263 0 0 -659 263 0 0 659zm103 0l423 -335 -391 -324 328 0 268 231 269 -231 317 0 -380 324 414 335 -339 0 -281 -231 -286 231 -342 0z"/>
    <path class="fil3" d="M2813 2122l293 0 0 32 -122 0 0 218 -51 0 0 -218 -120 0 0 -32zm450 0l200 0 0 32 -149 0 0 76 144 0 0 32 -144 0 0 78 153 0 0 32 -204 0 0 -250zm671 192l0 40c-37,14 -80,21 -128,21 -39,0 -73,-6 -100,-17 -27,-11 -49,-26 -65,-46 -16,-20 -24,-41 -24,-64 0,-36 19,-67 55,-92 37,-25 82,-37 135,-37 37,0 78,7 123,20l0 39c-41,-17 -81,-25 -121,-25 -40,0 -73,9 -100,27 -26,18 -40,41 -40,68 0,27 13,50 40,68 26,17 59,26 100,26 43,0 84,-9 125,-28zm419 -192l51 0 0 250 -51 0 0 -109 -197 0 0 109 -50 0 0 -250 50 0 0 108 197 0 0 -108zm517 0l48 0 0 250 -43 0 -235 -192 0 192 -48 0 0 -250 41 0 237 194 0 -194zm406 -3c54,0 99,12 135,36 37,25 55,55 55,92 0,37 -19,68 -55,92 -37,24 -83,36 -138,36 -53,0 -97,-12 -133,-36 -35,-24 -52,-55 -52,-91 0,-37 17,-68 53,-93 35,-24 80,-36 135,-36zm2 34c-41,0 -74,9 -100,26 -25,18 -38,41 -38,69 0,27 13,49 39,67 26,18 58,27 97,27 39,0 72,-9 98,-27 27,-19 40,-41 40,-68 0,-27 -13,-49 -40,-67 -26,-18 -58,-27 -96,-27zm359 -31l50 0 0 218 159 0 0 32 -209 0 0 -250zm535 -3c54,0 100,12 136,36 36,25 54,55 54,92 0,37 -18,68 -55,92 -36,24 -82,36 -138,36 -53,0 -97,-12 -132,-36 -35,-24 -53,-55 -53,-91 0,-37 18,-68 53,-93 36,-24 81,-36 135,-36zm2 34c-40,0 -73,9 -99,26 -26,18 -39,41 -39,69 0,27 13,49 39,67 26,18 58,27 98,27 39,0 72,-9 98,-27 26,-19 39,-41 39,-68 0,-27 -13,-49 -39,-67 -26,-18 -59,-27 -97,-27zm549 96l118 0 0 106c-43,13 -86,20 -128,20 -59,0 -105,-12 -140,-36 -35,-24 -52,-54 -52,-90 0,-37 18,-68 54,-93 36,-25 81,-37 136,-37 19,0 38,1 56,5 18,3 40,8 67,16l0 37c-42,-18 -83,-26 -124,-26 -39,0 -71,9 -98,28 -26,18 -39,41 -39,68 0,29 13,52 39,70 27,18 61,27 102,27 20,0 44,-3 72,-10l5 -1 0 -52 -68 0 0 -32zm302 -127l50 0 0 250 -50 0 0 -250zm238 0l199 0 0 32 -148 0 0 76 143 0 0 32 -143 0 0 78 153 0 0 32 -204 0 0 -250zm455 145l-38 -16c-24,-11 -41,-21 -52,-31 -10,-10 -15,-22 -15,-35 0,-19 10,-35 29,-48 19,-12 44,-18 75,-18 29,0 56,6 81,18l0 40c-26,-17 -53,-26 -82,-26 -17,0 -30,3 -41,8 -10,6 -16,13 -16,21 0,8 4,15 12,21 8,7 20,14 37,21l39 16c43,18 64,41 64,69 0,20 -9,37 -28,49 -19,13 -43,19 -74,19 -34,0 -66,-8 -94,-23l0 -45c27,24 58,36 94,36 16,0 29,-3 39,-9 11,-6 16,-14 16,-23 0,-16 -15,-30 -46,-44z"/>
   </g>
  </g>
 </g>
</svg>